<?xml version="1.0" encoding="UTF-8" standalone="no"?>
<!DOCTYPE svg PUBLIC "-//W3C//DTD SVG 1.1//EN" "http://www.w3.org/Graphics/SVG/1.1/DTD/svg11.dtd">
<svg width="100%" height="100%" viewBox="0 0 150 150" version="1.1" xmlns="http://www.w3.org/2000/svg" xmlns:xlink="http://www.w3.org/1999/xlink" xml:space="preserve" xmlns:serif="http://www.serif.com/" style="fill-rule:evenodd;clip-rule:evenodd;stroke-linecap:round;stroke-linejoin:round;stroke-miterlimit:1.5;">
    <g transform="matrix(0.682726,0,0,0.715298,24.9624,8.6098)">
        <path d="M103.748,20.757C103.748,17.264 100.776,14.427 97.116,14.427L55.112,14.427C51.451,14.427 48.479,17.264 48.479,20.757L48.479,107.284C48.479,110.777 51.451,113.614 55.112,113.614L97.116,113.614C100.776,113.614 103.748,110.777 103.748,107.284L103.748,20.757Z" style="stroke:white;stroke-width:1.19px;"/>
    </g>
    <g transform="matrix(0.857971,0,0,0.715298,58.5692,40.5554)">
        <path d="M31.4,68.609C31.4,67.335 30.538,66.301 29.477,66.301L13.487,66.301C12.425,66.301 11.563,67.335 11.563,68.609L11.563,73.223C11.563,74.497 12.425,75.53 13.487,75.53L29.477,75.53C30.538,75.53 31.4,74.497 31.4,73.223L31.4,68.609Z"/>
    </g>
    <g transform="matrix(0.857971,0,0,0.715298,58.2856,-34.2113)">
        <path d="M31.4,68.609C31.4,67.335 30.538,66.301 29.477,66.301L13.487,66.301C12.425,66.301 11.563,67.335 11.563,68.609L11.563,73.223C11.563,74.497 12.425,75.53 13.487,75.53L29.477,75.53C30.538,75.53 31.4,74.497 31.4,73.223L31.4,68.609Z" style="stroke:white;stroke-width:1.06px;"/>
    </g>
    <g transform="matrix(0.415193,0,0,0.715298,44.9951,8.6098)">
        <rect x="31.294" y="77.864" width="91.231" height="3.607" style="fill:white;stroke:black;stroke-width:1.42px;"/>
    </g>
    <g transform="matrix(0.415193,0,0,0.715298,44.9227,0.33885)">
        <rect x="31.294" y="77.864" width="91.231" height="3.607" style="fill:white;stroke:black;stroke-width:1.42px;"/>
    </g>
    <g transform="matrix(0.415193,0,0,0.715298,44.9227,-8.23562)">
        <rect x="31.294" y="77.864" width="91.231" height="3.607" style="fill:white;stroke:black;stroke-width:1.42px;"/>
    </g>
    <g transform="matrix(0.415193,0,0,0.715298,44.9227,-16.4307)">
        <rect x="31.294" y="77.864" width="91.231" height="3.607" style="fill:white;stroke:black;stroke-width:1.42px;"/>
    </g>
    <g transform="matrix(0.415193,0,0,0.715298,45.0675,16.729)">
        <rect x="31.294" y="77.864" width="91.231" height="3.607" style="fill:white;stroke:black;stroke-width:1.42px;"/>
    </g>
    <g transform="matrix(0.415193,0,0,0.715298,44.9227,24.5447)">
        <rect x="31.294" y="77.864" width="91.231" height="3.607" style="fill:white;stroke:black;stroke-width:1.42px;"/>
    </g>
    <g transform="matrix(0.682726,0,0,0.584704,23.695,11.0509)">
        <path d="M121.994,36.704L31.719,36.704L54.287,11.139L99.425,11.139L121.994,36.704Z" style="stroke:white;stroke-width:1.02px;"/>
    </g>
    <g transform="matrix(0.682726,0,0,0.707808,50.8906,37.6771)">
        <path d="M28.324,72.296C28.324,71.915 28.003,71.605 27.608,71.605L26.176,71.605C25.781,71.605 25.46,71.915 25.46,72.296L25.46,91.176C25.46,91.558 25.781,91.867 26.176,91.867L27.608,91.867C28.003,91.867 28.324,91.558 28.324,91.176L28.324,72.296Z"/>
    </g>
    <g transform="matrix(0.682726,0,0,0.707808,53.7876,36.3871)">
        <path d="M28.324,72.296C28.324,71.915 28.003,71.605 27.608,71.605L26.176,71.605C25.781,71.605 25.46,71.915 25.46,72.296L25.46,91.176C25.46,91.558 25.781,91.867 26.176,91.867L27.608,91.867C28.003,91.867 28.324,91.558 28.324,91.176L28.324,72.296Z"/>
    </g>
    <g transform="matrix(0.682726,0,0,0.872589,58.9298,24.8915)">
        <path d="M28.324,72.166C28.324,71.856 28.003,71.605 27.608,71.605L26.176,71.605C25.781,71.605 25.46,71.856 25.46,72.166L25.46,91.307C25.46,91.616 25.781,91.867 26.176,91.867L27.608,91.867C28.003,91.867 28.324,91.616 28.324,91.307L28.324,72.166Z"/>
    </g>
    <g transform="matrix(0.682726,0,0,0.6684,58.8352,61.3394)">
        <path d="M28.324,72.337C28.324,71.933 28.003,71.605 27.608,71.605L26.176,71.605C25.781,71.605 25.46,71.933 25.46,72.337L25.46,91.136C25.46,91.539 25.781,91.867 26.176,91.867L27.608,91.867C28.003,91.867 28.324,91.539 28.324,91.136L28.324,72.337Z"/>
    </g>
    <g transform="matrix(0.682726,0,0,0.707808,66.8241,36.6907)">
        <path d="M28.324,72.296C28.324,71.915 28.003,71.605 27.608,71.605L26.176,71.605C25.781,71.605 25.46,71.915 25.46,72.296L25.46,91.176C25.46,91.558 25.781,91.867 26.176,91.867L27.608,91.867C28.003,91.867 28.324,91.558 28.324,91.176L28.324,72.296Z"/>
    </g>
    <g transform="matrix(0.682726,0,0,0.707808,63.7822,36.3113)">
        <path d="M28.324,72.296C28.324,71.915 28.003,71.605 27.608,71.605L26.176,71.605C25.781,71.605 25.46,71.915 25.46,72.296L25.46,91.176C25.46,91.558 25.781,91.867 26.176,91.867L27.608,91.867C28.003,91.867 28.324,91.558 28.324,91.176L28.324,72.296Z"/>
    </g>
    <g transform="matrix(0.670455,0,0,0.692308,59.8267,-4.53737)">
        <path d="M24.293,16.972C26.869,16.972 28.96,19.135 28.96,21.799C28.96,24.463 26.869,26.626 24.293,26.626C21.717,26.626 19.625,24.463 19.625,21.799C19.625,19.135 21.717,16.972 24.293,16.972ZM24.293,19.385C25.581,19.385 26.627,20.467 26.627,21.799C26.627,23.131 25.581,24.212 24.293,24.212C23.005,24.212 21.959,23.131 21.959,21.799C21.959,20.467 23.005,19.385 24.293,19.385Z"/>
    </g>
    <g transform="matrix(1.15663,0,0,1.16471,26.1243,17.1853)">
        <path d="M44.183,72.136C46.613,72.136 48.586,74.156 48.586,76.644C48.586,79.133 46.613,81.153 44.183,81.153C41.753,81.153 39.781,79.133 39.781,76.644C39.781,74.156 41.753,72.136 44.183,72.136ZM44.183,75.517C44.791,75.517 45.284,76.022 45.284,76.644C45.284,77.266 44.791,77.771 44.183,77.771C43.576,77.771 43.083,77.266 43.083,76.644C43.083,76.022 43.576,75.517 44.183,75.517Z"/>
    </g>
    <g transform="matrix(0.927711,0,0,0.905882,36.6098,55.6931)">
        <path d="M44.183,72.136C46.613,72.136 48.586,74.156 48.586,76.644C48.586,79.133 46.613,81.153 44.183,81.153C41.753,81.153 39.781,79.133 39.781,76.644C39.781,74.156 41.753,72.136 44.183,72.136ZM44.183,75.517C44.791,75.517 45.284,76.022 45.284,76.644C45.284,77.266 44.791,77.771 44.183,77.771C43.576,77.771 43.083,77.266 43.083,76.644C43.083,76.022 43.576,75.517 44.183,75.517Z"/>
    </g>
</svg>
